<svg preserveAspectRatio="none" overflow="visible" style="display: block;" width="60.785" height="85.2911" viewBox="0 0 60.785 85.2911" fill="none" xmlns="http://www.w3.org/2000/svg">
<g id="kapsula">
<path id="Vector" d="M14.7355 85.0769C6.59824 85.0769 0 78.4787 0 70.3415V14.7356C0 6.5984 6.59824 0.000160645 14.7355 0.000160645C22.8727 0.000160645 29.4709 6.5984 29.4709 14.7356V70.3445C29.4709 78.4817 22.8727 85.08 14.7355 85.08V85.0769Z" fill="#F3F1F2"/>
<path id="Vector_2" d="M46.0495 85.0767C37.9123 85.0767 31.3141 78.4785 31.3141 70.3413V14.7355C31.3172 6.59824 37.9123 0 46.0495 0C54.1868 0 60.785 6.59824 60.785 14.7355V70.3444C60.785 78.4816 54.1868 85.0798 46.0495 85.0798V85.0767Z" fill="#F3F1F2"/>
</g>
</svg>
